<?xml version="1.0" encoding="utf-8"?>
<!-- Generator: Adobe Illustrator 28.0.0, SVG Export Plug-In . SVG Version: 6.00 Build 0)  -->
<svg version="1.1" id="Capa_1" xmlns="http://www.w3.org/2000/svg" xmlns:xlink="http://www.w3.org/1999/xlink" x="0px" y="0px"
	 viewBox="0 0 250 250" style="enable-background:new 0 0 250 250;" xml:space="preserve">
<style type="text/css">
	.st0{fill:#DD927A;stroke:#DD927A;stroke-width:2;stroke-miterlimit:10;}
</style>
<g>
	<path class="st0" d="M124.74,57.89c41.7-45,117.37-16.25,118.37,46.33c0.9,55.19-78.57,94.52-116.07,127.89
		c-1.3,1.2-3.3,1.17-4.6,0c-36.7-32.64-116.1-75.3-116.1-127.82C6.34,41.81,83.08,12.93,124.74,57.89z M122.41,65.69
		C82.98,21.23,13.3,47.1,13.3,104.29c0,15.42,8.23,30.47,20.48,44.8l66.98-66.88c1.33-1.33,3.53-1.47,4.9-0.1l20.52,19.68
		c11.69,11.22,28.04-6.83,17.02-16.95L122.41,65.69z M129.57,62.86l18.32,16.89c17.85,16.42-8.16,44.7-26.51,27.04l-18.05-17.35
		l-64.91,64.81c5.73,6.16,12.12,12.16,18.85,17.98l57.22-59.45c3.16-3.3,8.16,1.5,5,4.8l-56.92,59.15
		c6.43,5.36,13.09,10.56,19.68,15.55l56.59-57.78c3.2-3.26,8.13,1.6,4.96,4.83l-55.99,57.18c6.16,4.63,12.39,9.23,18.55,13.89
		l54.12-52.16c3.3-3.16,8.09,1.83,4.8,5l-53.32,51.39c4.66,3.6,8.99,7.03,12.79,10.29c35.27-30.07,112.27-71.01,111.47-120.56
		C235.28,47.9,166.94,22.06,129.57,62.86z"/>
</g>
</svg>
