<?xml version="1.0" encoding="utf-8"?>
<!-- Generator: Adobe Illustrator 28.0.0, SVG Export Plug-In . SVG Version: 6.00 Build 0)  -->
<svg version="1.1" id="Capa_1" xmlns="http://www.w3.org/2000/svg" xmlns:xlink="http://www.w3.org/1999/xlink" x="0px" y="0px"
	 viewBox="0 0 250 250" style="enable-background:new 0 0 250 250;" xml:space="preserve">
<style type="text/css">
	.st0{fill-rule:evenodd;clip-rule:evenodd;fill:#DD927A;}
</style>
<path class="st0" d="M125.29,54.64c46.55-59.49,153.76-4.88,101.1,91.64c-21.08,38.63-58.93,65.6-98.64,86.13
	c-1.62,0.83-3.46,0.76-4.96-0.03c-39.91-20.87-77.32-47.1-98.6-86.1c-19.61-35.94-17-66.07-3.68-86.68
	C43.64,23.8,96.93,18.39,125.29,54.64L125.29,54.64z M180.74,40.94c-18.63-1.91-38.38,5.84-50.87,25.84
	c-2.11,3.43-7.04,3.42-9.14,0.04C84.57,8.77-14.23,53.5,33.59,141.16c19.61,35.95,54.76,60.98,91.69,80.43
	c36.93-19.46,72.08-44.48,91.7-80.43c21.21-38.87,15.41-75.38-13.49-92.66C196.55,44.34,188.75,41.75,180.74,40.94z"/>
</svg>
