<?xml version="1.0" encoding="utf-8"?>
<!-- Generator: Adobe Illustrator 28.0.0, SVG Export Plug-In . SVG Version: 6.00 Build 0)  -->
<svg version="1.1" id="Capa_1" xmlns="http://www.w3.org/2000/svg" xmlns:xlink="http://www.w3.org/1999/xlink" x="0px" y="0px"
	 viewBox="0 0 250 250" style="enable-background:new 0 0 250 250;" xml:space="preserve">
<style type="text/css">
	.st0{fill-rule:evenodd;clip-rule:evenodd;fill:#DD927A;}
</style>
<path class="st0" d="M175.05,169.23c1.33,1.51,1.18,3.8-0.32,5.12l-27.28,24.01c-1.5,1.31-3.79,1.18-5.12-0.32l-11.28-12.73
	c-1.33-1.5-1.19-3.8,0.31-5.12c1.5-1.33,3.79-1.19,5.12,0.31l8.88,10.02l24.57-21.62C171.43,167.57,173.72,167.72,175.05,169.23
	L175.05,169.23z M153.05,214.92c17.25,0,31.29-14.04,31.29-31.29c0-17.25-14.04-31.29-31.29-31.29c-17.25,0-31.29,14.04-31.29,31.29
	C121.75,200.88,135.79,214.92,153.05,214.92L153.05,214.92z M153.05,145.08c-21.26,0-38.55,17.29-38.55,38.55
	c0,21.26,17.29,38.55,38.55,38.55c21.26,0,38.55-17.29,38.55-38.55C191.6,162.37,174.3,145.08,153.05,145.08L153.05,145.08z
	 M201.66,194.9c8.06-5.35,8.06-17.19,0-22.54c-5-3.32-7.46-9.26-6.27-15.14c1.92-9.48-6.46-17.85-15.94-15.94
	c-5.88,1.19-11.82-1.27-15.14-6.27c-5.35-8.06-17.19-8.06-22.54,0c-3.32,5-9.26,7.46-15.14,6.27c-9.49-1.92-17.85,6.45-15.94,15.94
	c1.19,5.88-1.27,11.82-6.27,15.14c-8.06,5.35-8.07,17.19,0,22.54c5,3.32,7.46,9.26,6.27,15.14c-1.91,9.48,6.45,17.86,15.94,15.94
	c5.81-1.17,11.78,1.22,15.14,6.27c5.35,8.06,17.19,8.06,22.54,0c3.32-5,9.26-7.46,15.14-6.27c9.5,1.92,17.85-6.46,15.94-15.94
	C194.2,204.16,196.66,198.22,201.66,194.9L201.66,194.9z M40.26,125.55c0.25,28.68,22.9,52.49,51.15,54.61
	c0.94-5.61,4.16-10.64,9-13.85c2.57-1.7,3.78-4.64,3.17-7.65c-2.95-14.55,9.9-27.44,24.49-24.49c3.02,0.61,5.95-0.61,7.65-3.17
	c3.44-5.19,8.96-8.5,15.06-9.17V52.03c0-4.49-3.65-8.15-8.15-8.15c-4.49,0-8.15,3.66-8.15,8.15v49.47c0,2-1.62,3.63-3.63,3.63
	c-2.01,0-3.63-1.63-3.63-3.63V33.19c0-4.49-3.66-8.15-8.14-8.15c-4.5,0-8.15,3.66-8.15,8.15v49.47c0,2.01-1.63,3.63-3.63,3.63
	c-2.01,0-3.63-1.63-3.63-3.63V21.41c0-4.49-3.65-8.15-8.15-8.15c-4.49,0-8.15,3.66-8.15,8.15v63.6c0,2-1.62,3.63-3.63,3.63
	c-2,0-3.63-1.63-3.63-3.63V35.54c0-4.49-3.66-8.15-8.15-8.15c-4.49,0-8.15,3.66-8.15,8.15v65.14c11.23,3.99,18.85,14.61,18.85,26.73
	c0,2.01-1.63,3.63-3.63,3.63c-2,0-3.63-1.63-3.63-3.63c0-9.71-6.57-18.13-15.98-20.48c-1.71-0.42-2.86-1.83-2.86-3.55V75.87
	c0-4.49-3.66-8.15-8.15-8.15c-4.49,0-8.15,3.66-8.15,8.15L40.26,125.55L40.26,125.55z M205.68,166.31c-2.57-1.7-3.78-4.64-3.17-7.65
	c2.94-14.54-9.89-27.44-24.49-24.49c-3.02,0.61-5.95-0.61-7.66-3.17c-2.92-4.4-7.33-7.45-12.32-8.69V52.03
	c0-12.14-13.42-19.42-23.56-13.07v-5.77c0-12.16-13.46-19.45-23.61-13.04C110.23,12.24,103.59,6,95.52,6
	c-8.49,0-15.41,6.91-15.41,15.41v1.06c-10.15-6.35-23.55,0.94-23.55,13.07V62.8C46.41,56.45,33,63.74,33,75.87v49.47
	c0,32.69,25.73,60.02,58.46,62.11c1.02,5.47,4.21,10.35,8.95,13.5c2.57,1.7,3.78,4.64,3.17,7.65c-2.95,14.53,9.88,27.44,24.49,24.49
	c3.02-0.61,5.95,0.61,7.65,3.17c8.21,12.38,26.42,12.38,34.64,0c1.7-2.57,4.63-3.78,7.66-3.17c14.62,2.95,27.43-9.97,24.49-24.49
	c-0.61-3.02,0.6-5.95,3.17-7.65C218.06,192.73,218.07,174.54,205.68,166.31z"/>
</svg>
