<?xml version="1.0" encoding="utf-8"?>
<!-- Generator: Adobe Illustrator 28.0.0, SVG Export Plug-In . SVG Version: 6.00 Build 0)  -->
<svg version="1.1" id="Capa_1" xmlns="http://www.w3.org/2000/svg" xmlns:xlink="http://www.w3.org/1999/xlink" x="0px" y="0px"
	 viewBox="0 0 250 250" style="enable-background:new 0 0 250 250;" xml:space="preserve">
<style type="text/css">
	.st0{fill:#DD927A;}
</style>
<path class="st0" d="M4.31,96.02l25.18,14.27l0,0l0,0c0.74,0.41,1.3,1.08,1.59,1.89l6.23,17.5c0.96,2.71,2.89,4.97,5.38,6.41
	l22.77,12.87l14.16,8.42c0.41,2.08,1.3,4,2.67,5.6l12.16,14.09c0.56,0.63,0.85,1.45,0.85,2.3v28.92c0,2.04,1.67,3.71,3.71,3.71
	s3.71-1.67,3.71-3.71v-25.21h44.12v25.21c0,2.04,1.67,3.71,3.71,3.71c2.04,0,3.71-1.67,3.71-3.71v-35.37c0-0.89,0.41-1.78,1.08-2.37
	l12.53-10.68c0.82-0.7,1.45-1.52,1.97-2.37l37.41-21.54c2.45-1.45,4.34-3.71,5.3-6.45l6.12-17.57c0.26-0.78,0.82-1.45,1.56-1.89
	c0,0,0,0,0.04,0c0,0,0,0,0.04-0.04l25.03-14.46c1.78-1.04,2.37-3.3,1.37-5.08s-3.3-2.37-5.08-1.37l-21.84,12.61L197.71,63.5
	l21.84-12.61c1.78-1.04,2.37-3.3,1.37-5.08c-1.04-1.78-3.3-2.37-5.08-1.37l-25.06,14.46l0,0l0,0l-5.6,3.23
	c-0.78,0.44-1.74,0.56-2.6,0.22l-15.5-5.49c-2.82-1-5.93-0.7-8.49,0.78l-7.16,4.15c-0.26-0.3-0.44-0.63-0.7-0.93
	c-2.34-2.34-5.41-3.6-8.71-3.6c-1.74,0-3.37,0.37-4.86,1v-2.97c0-3.26-1.26-6.34-3.6-8.71c-2.34-2.34-5.41-3.6-8.68-3.6
	c-6.12,0-11.16,4.49-12.12,10.34c-1.56-0.7-3.26-1.11-5.08-1.11c-5.34,0-9.86,3.45-11.53,8.19l-5.34-3.04
	c-2.6-1.48-5.71-1.74-8.53-0.74l-15.42,5.64c-0.89,0.3-1.85,0.22-2.63-0.22l-5.56-3.15c-0.04,0-0.04-0.04-0.04-0.04
	s-0.04,0-0.07-0.04L33.41,44.59c-1.78-1-4.04-0.37-5.04,1.41c-1,1.78-0.37,4.04,1.41,5.04L51.73,63.5L30,101.88L8.05,89.46
	c-1.78-1-4.04-0.37-5.04,1.41C1.9,92.76,2.53,95.02,4.31,96.02z M162.26,64.17c0.7-0.41,1.56-0.48,2.34-0.22l15.5,5.49
	c2.93,1.04,6.12,0.74,8.79-0.82l2.37-1.37l22.39,38.75c-0.85,1-1.56,2.19-2,3.45l-6.08,17.54c-0.37,1.04-1.11,1.93-2.04,2.48
	l-32.07,18.5v-35.85c0-3.23-1.26-6.3-3.63-8.71c-2.34-2.3-5.41-3.56-8.68-3.56c-1.74,0-3.37,0.37-4.86,1V69.62
	c0-0.3-0.04-0.56-0.07-0.85L162.26,64.17z M102.71,64.62c0-2.67,2.19-4.86,4.86-4.86c1.33,0,2.52,0.48,3.49,1.45
	c0.89,0.89,1.41,2.11,1.41,3.41v50.46v2.52c0,2.04,1.67,3.71,3.71,3.71s3.71-1.67,3.71-3.71v-2.52V64.62v-9.23
	c0-2.71,2.19-4.89,4.89-4.89c1.3,0,2.52,0.52,3.41,1.41c0.93,0.96,1.45,2.19,1.45,3.52v14.24v42.08v7.53c0,2.04,1.67,3.71,3.71,3.71
	c2.04,0,3.71-1.67,3.71-3.71v-7.53V69.66c0-2.67,2.19-4.86,4.86-4.86c1.33,0,2.56,0.52,3.49,1.41c0.52,0.52,0.93,1.15,1.19,1.97
	c0.15,0.44,0.26,0.96,0.26,1.48v42.49v12.79v1.04c0,2.04,1.67,3.71,3.71,3.71c2.04,0,3.71-1.67,3.71-3.71v-1.04v-12.79
	c0-2.67,2.19-4.86,4.86-4.86c1.3,0,2.52,0.52,3.41,1.41c0.93,0.96,1.45,2.19,1.45,3.49v39.93c0,0.37-0.07,0.78-0.3,1.22
	c-0.15,0.33-0.41,0.67-0.7,0.93l-12.53,10.68c-2.34,2-3.67,4.93-3.67,8.01v2.74h-44.72c-0.44-1.26-1.11-2.41-2-3.45l-12.12-14.09
	c-0.7-0.82-1.11-1.85-1.11-3V82.6c0-2.67,1.89-4.86,4.26-4.86c2.34,0,4.23,2.19,4.23,4.86v31.63v4.6c0,2.04,1.67,3.71,3.71,3.71
	s3.71-1.67,3.71-3.71v-4.6V82.6V64.62z M60.52,68.66c2.67,1.48,5.86,1.74,8.79,0.7l15.42-5.64c0.78-0.26,1.63-0.19,2.34,0.19
	l8.23,4.71v2.56c-1.33-0.56-2.74-0.89-4.26-0.89c-6.41,0-11.64,5.52-11.64,12.27v66l-10.23-6.01l-22.84-12.94
	c-0.96-0.56-1.71-1.41-2.04-2.45l-6.23-17.5c-0.44-1.26-1.15-2.45-2-3.45l22.06-38.93L60.52,68.66z"/>
</svg>
