<?xml version="1.0" encoding="utf-8"?>
<!-- Generator: Adobe Illustrator 28.0.0, SVG Export Plug-In . SVG Version: 6.00 Build 0)  -->
<svg version="1.1" id="Capa_1" xmlns="http://www.w3.org/2000/svg" xmlns:xlink="http://www.w3.org/1999/xlink" x="0px" y="0px"
	 viewBox="0 0 250 250" style="enable-background:new 0 0 250 250;" xml:space="preserve">
<style type="text/css">
	.st0{fill:#DD927A;}
</style>
<g>
	<path class="st0" d="M118.12,74.2L118.12,74.2c0-11.36-9.23-20.6-20.59-20.61c0,0-0.01,0-0.01,0c-5.5,0-10.67,2.14-14.56,6.03
		c-3.89,3.89-6.04,9.06-6.04,14.56c0,5.5,2.14,10.68,6.03,14.57c3.89,3.89,9.06,6.04,14.58,6.04
		C108.86,94.77,118.1,85.54,118.12,74.2z M109.04,74.1c0.02,6.35-5.12,11.54-11.52,11.56c-6.32,0-11.49-5.15-11.52-11.48
		c-0.02-6.35,5.12-11.54,11.48-11.56c0.02,0,0.03,0,0.04,0C103.86,62.63,109.02,67.77,109.04,74.1z"/>
	<path class="st0" d="M145.28,139.42l-18.74-0.5l-5.24-32.72c-0.5-3.02-2.23-5.75-4.76-7.48c-2.54-1.73-5.73-2.36-8.74-1.73
		l-13.67,2.93c-6.09,1.31-9.98,7.33-8.65,13.49l9.15,41.34c1.92,8.76,9.8,14.71,18.75,14.15l29.09-1.82l-2.87,27.77
		c-0.25,2.49,1.57,4.72,4.08,4.98c0.09,0.01,0.19,0.01,0.28,0.01c0.07,0,0.15,0,0.22-0.01c2.3-0.03,4.22-1.77,4.46-4.07l2.18-21.25
		l11.38,22.11c1.08,2.09,3.63,3.01,5.79,2.11l13.44-5.6c1.1-0.48,1.96-1.36,2.41-2.46c0.48-1.14,0.47-2.43-0.02-3.57l-17.09-40.45
		c-1.73-4.06-5.69-6.76-10.1-6.89l-2.25-0.06l2.59-25.14c0.81-7.8-4.88-14.81-12.7-15.63c-7.75-0.76-14.76,4.93-15.61,12.69
		l-0.44,4.25c-0.3,2.48,1.48,4.75,3.96,5.05c1.2,0.14,2.39-0.19,3.35-0.93s1.56-1.82,1.71-3.02l0.46-4.46
		c0.23-2.84,2.73-4.95,5.56-4.73c2.84,0.23,4.96,2.72,4.73,5.56c-0.01,0.07-0.01,0.14-0.03,0.26L145.28,139.42z M152.39,158.55
		l1.01-9.8l2.93,0.08c0.87,0.03,1.65,0.56,1.99,1.35l15.32,36.25l-5.32,2.23l-14.8-28.82C153.23,159.35,152.84,158.91,152.39,158.55
		z M144.3,148.51l-0.96,9.29l-30.58,1.95l-0.01,0c-4.38,0.29-8.38-2.71-9.3-7.01L94.3,111.4c-0.26-1.2,0.5-2.38,1.62-2.63l0.16-0.03
		l13.57-2.88c0.57-0.13,1.16-0.02,1.65,0.3c0.49,0.32,0.83,0.81,0.96,1.38l5.86,36.56c0.34,2.16,2.18,3.77,4.36,3.83L144.3,148.51z"
		/>
	<path class="st0" d="M227.52,55.6c-0.1-2.2-1.76-4.01-3.95-4.32c-39.76-5.45-71.04-19.36-95.63-42.54c-1.76-1.66-4.52-1.66-6.27,0
		C97.08,31.92,65.8,45.84,26.04,51.29c-2.18,0.3-3.84,2.12-3.95,4.31c-2.86,60.22,3.89,102.79,20.62,130.14
		c14.86,24.29,34.45,32.75,53.4,40.93c9.09,3.92,18.49,7.98,25.85,13.84c0.81,0.64,1.82,0.99,2.85,0.99c1.03,0,2.04-0.35,2.85-0.99
		c7.36-5.85,16.76-9.91,25.86-13.84c18.94-8.17,38.52-16.63,53.38-40.93C223.63,158.39,230.38,115.82,227.52,55.6z M199.1,180.97
		c-13.35,21.82-31.58,29.69-49.21,37.3c-8.55,3.69-17.38,7.5-25.08,12.94c-7.7-5.44-16.53-9.25-25.09-12.95
		c-17.63-7.61-35.86-15.48-49.2-37.3C35.11,155.78,28.75,116.14,31.07,59.8c38.33-5.83,69.01-19.42,93.74-41.52
		c24.73,22.1,55.42,35.69,93.74,41.52C220.87,116.14,214.51,155.78,199.1,180.97z"/>
</g>
</svg>
