<?xml version="1.0" encoding="utf-8"?>
<!-- Generator: Adobe Illustrator 28.0.0, SVG Export Plug-In . SVG Version: 6.00 Build 0)  -->
<svg version="1.1" id="Capa_1" xmlns="http://www.w3.org/2000/svg" xmlns:xlink="http://www.w3.org/1999/xlink" x="0px" y="0px"
	 viewBox="0 0 250 250" style="enable-background:new 0 0 250 250;" xml:space="preserve">
<style type="text/css">
	.st0{fill:#DD927A;}
</style>
<path class="st0" d="M222.52,113.21h-2.32l0-56.39c-0.18-6.24-4.99-11.41-11.18-12.04c-55.87-6.36-112.53-6.36-168.37,0
	c-6.23,0.61-11.06,5.78-11.26,12.1v49.42c0,2.09,1.7,3.79,3.79,3.79s3.79-1.7,3.79-3.79l0-49.33c0.12-2.45,2.05-4.46,4.56-4.67
	c55.27-6.28,111.32-6.28,166.65,0c2.43,0.21,4.35,2.22,4.46,4.57v56.34H196c0.06-0.38,0.09-0.76,0.1-1.14v-11.54
	c-0.01-4.87-3.97-8.83-8.84-8.84h-41.94c-4.87,0.01-8.83,3.97-8.83,8.84v11.54c0,0.38,0.03,0.76,0.08,1.14h-23.52
	c0.06-0.38,0.09-0.76,0.1-1.14v-11.54c0-4.87-3.97-8.83-8.84-8.84H62.36c-4.87,0-8.84,3.97-8.84,8.84l0,11.58
	c0.01,0.37,0.04,0.73,0.1,1.1H27.09c-7.29,0.01-13.23,5.95-13.24,13.24v55.02c0,4.06,3.3,7.36,7.36,7.36h8.2v5.82
	c0,4.06,3.3,7.36,7.36,7.36H51.5c4.06,0,7.36-3.3,7.36-7.36v-5.81h104.66c2.09,0,3.79-1.7,3.79-3.79s-1.7-3.79-3.79-3.79H21.42
	v-54.8c0-3.13,2.55-5.67,5.67-5.67h195.41c0,0,0,0,0,0c3.13,0,5.67,2.54,5.68,5.66v54.8h-50.8c-2.09,0-3.79,1.7-3.79,3.79
	s1.7,3.79,3.79,3.79h13.36v5.82c0,4.06,3.3,7.36,7.36,7.36h14.73c4.06,0,7.36-3.3,7.36-7.36v-5.81h8.21c4.06,0,7.36-3.3,7.36-7.36
	v-55.02C235.76,119.16,229.82,113.21,222.52,113.21z M212.63,188.83v5.61h-14.3v-5.61H212.63z M62.37,99.26h41.93
	c0.7,0,1.27,0.57,1.27,1.27v11.54c0,0.5-0.29,0.94-0.73,1.14H61.83c-0.44-0.2-0.73-0.65-0.73-1.15v-11.53
	C61.1,99.83,61.67,99.26,62.37,99.26z M145.32,99.26h41.93c0.7,0,1.27,0.57,1.27,1.27v11.53c0,0.49-0.29,0.94-0.73,1.15h-42.73
	l-0.1-0.02c-0.53-0.1-0.92-0.57-0.91-1.12v-11.54C144.05,99.83,144.62,99.26,145.32,99.26z M51.28,188.83v5.61H36.98v-5.61H51.28z"
	/>
</svg>
