<?xml version="1.0" encoding="utf-8"?>
<!-- Generator: Adobe Illustrator 28.0.0, SVG Export Plug-In . SVG Version: 6.00 Build 0)  -->
<svg version="1.1" id="Capa_1" xmlns="http://www.w3.org/2000/svg" xmlns:xlink="http://www.w3.org/1999/xlink" x="0px" y="0px"
	 viewBox="0 0 250 250" style="enable-background:new 0 0 250 250;" xml:space="preserve">
<style type="text/css">
	.st0{fill:#DD927A;}
</style>
<path class="st0" d="M186.17,187.9c1.94-5.07,8.49-24.74,8.49-58.91c0-45.66-20.1-56.17-46.98-63.29
	c4.77-7.46,7.06-17.16,7.06-26.51c0-16.65-13.55-30.2-30.2-30.2S94.35,22.55,94.35,39.2c0,9.51,2.35,19.38,7.28,26.89
	C77.84,72.69,56,84.58,56,129c0,34.16,6.55,53.84,8.49,58.91c-0.98,3.71-0.52,7.6,1.24,10.94c-0.03,0.08-0.07,0.14-0.09,0.22
	c-1.8,5.85-2.71,11.95-2.71,18.13c0,12.53,10.19,22.72,22.72,22.72h77.8c12.53,0,22.72-10.19,22.72-22.72
	c0-5.65-0.78-11.25-2.29-16.65C186.47,196.88,187.32,192.27,186.17,187.9z M166.27,187.27c1.81-1.78,2.77-4.34,2.85-7.53
	c2.88,0.75,6.7,2.7,8.97,7.75c0.24,0.53,0.45,1.03,0.64,1.53c1.34,3.52-0.18,6.69-1.89,8.33c-0.94,0.9-3.5,2.85-6.95,1.38
	c-1.36-0.65-5.47-3.5-5.97-6.47C163.82,191.7,163.53,189.98,166.27,187.27z M124.54,16.48c12.53,0,22.72,10.19,22.72,22.72
	c0,11.11-4.75,32.12-22.72,32.12c-17.97,0-22.72-21.01-22.72-32.12C101.83,26.67,112.02,16.48,124.54,16.48z M107.11,72.36
	c4.54,3.96,10.3,6.43,17.44,6.43c7.32,0,13.21-2.59,17.8-6.74c27.1,6.79,44.84,14.52,44.84,56.94c0,24.2-3.45,40.87-5.93,49.73
	c-4.33-4.91-9.79-6.36-13.25-6.75c0.81-7.1,3.24-31.5,1.11-51.09c-0.22-2.05-2.09-3.52-4.12-3.31c-2.05,0.22-3.54,2.07-3.31,4.12
	c1.75,16.09,0.21,36.24-0.73,45.8c-4.28-3.14-8.93-5.66-13.88-7.6c3.81-6.71,5.65-15.04,5.65-23.12c0-15.54-12.64-28.19-28.19-28.19
	c-15.54,0-28.18,12.64-28.18,28.19c0,8.07,1.85,16.41,5.65,23.11c-4.39,1.73-8.54,3.93-12.41,6.6c-0.94-9.91-2.32-29.23-0.63-44.79
	c0.22-2.05-1.26-3.9-3.31-4.12c-2.02-0.24-3.9,1.26-4.12,3.31c-2.13,19.58,0.3,43.98,1.11,51.09c-3.45,0.39-8.91,1.85-13.25,6.76
	c-2.48-8.86-5.93-25.53-5.93-49.73C63.48,87.63,83.94,78.31,107.11,72.36z M103.84,136.77c0-11.42,9.29-20.71,20.71-20.71
	c11.42,0,20.71,9.29,20.71,20.71c0,10.17-4.33,29.39-20.71,29.39C108.17,166.16,103.84,146.94,103.84,136.77z M71.94,189.02
	c0.18-0.49,0.4-1,0.63-1.52c2.27-5.04,6.09-7,8.97-7.75c0.08,3.18,1.04,5.74,2.85,7.52c2.75,2.7,2.46,4.43,2.36,4.99
	c-0.5,2.97-4.61,5.82-5.92,6.45c-3.49,1.49-6.06-0.46-7-1.36C72.12,195.72,70.6,192.55,71.94,189.02z M163.45,232.44h-77.8
	c-8.41,0-15.25-6.84-15.25-15.25c0-4.13,0.47-8.22,1.39-12.21c2.03,1.11,4.25,1.73,6.51,1.73c1.83,0,3.68-0.37,5.46-1.13
	c0.09-0.04,8.87-4.22,10.32-11.85c0.54-2.85,0.21-7.21-4.45-11.79c-0.41-0.4-1-2.1-0.29-5.63c0.02-0.09,0.01-0.17,0.02-0.26
	c4.97-4.25,10.58-7.55,16.71-9.77c0.18-0.06,0.33-0.15,0.49-0.24c4.45,4.63,10.4,7.59,17.98,7.59c7.58,0,13.53-2.96,17.98-7.59
	c0.16,0.08,0.31,0.17,0.48,0.23c6.56,2.38,12.54,5.97,17.77,10.68c0.22,0.2,0.48,0.31,0.73,0.44c0.39,2.79-0.11,4.18-0.48,4.54
	c-4.65,4.58-4.99,8.94-4.44,11.8c1.45,7.64,10.23,11.82,10.32,11.85c1.78,0.76,3.63,1.13,5.45,1.13c1.75,0,3.48-0.34,5.11-1
	c0.81,3.76,1.22,7.6,1.22,11.48C178.69,225.6,171.85,232.44,163.45,232.44z"/>
</svg>
