<?xml version="1.0" encoding="utf-8"?>
<!-- Generator: Adobe Illustrator 28.0.0, SVG Export Plug-In . SVG Version: 6.00 Build 0)  -->
<svg version="1.1" id="Capa_1" xmlns="http://www.w3.org/2000/svg" xmlns:xlink="http://www.w3.org/1999/xlink" x="0px" y="0px"
	 viewBox="0 0 250 250" style="enable-background:new 0 0 250 250;" xml:space="preserve">
<style type="text/css">
	.st0{fill:#DD927A;}
</style>
<g>
	<path class="st0" d="M217.75,163.43l-4.94,4.47l-7.36-7.36v-21.05c0-7.36-1.54-14.57-4.58-21.38l-25.22-55.97
		c-1.32-2.93-3.84-5.12-6.92-6c-3.07-0.88-6.33-0.37-8.97,1.43c-0.59,0.4-1.06,0.88-1.57,1.35c-7.39-10.91-19.77-17.64-33.27-17.64
		s-25.88,6.74-33.27,17.64c-0.48-0.48-0.99-0.95-1.54-1.32c-2.64-1.79-5.93-2.31-9-1.43c-3.07,0.88-5.6,3.07-6.92,6l-25.22,55.97
		c-3.04,6.81-4.58,13.98-4.58,21.38v21.05l-7.36,7.36l-4.94-4.47c-1.43-1.32-3.62-1.24-5.01,0.11L8.89,181.44l5.12,5.23l15.74-15.48
		l38.84,35.14l-19.66,22.91L54.5,234l21.96-25.62c1.28-1.5,1.13-3.77-0.33-5.09l-3.37-3.07l13.47-15.19
		c6.08-6.84,9.41-15.63,9.41-24.74v-28.33c0-3.7-1.43-7.17-4.03-9.77c-1.57-1.57-3.48-2.67-5.56-3.33l3.26-18.67
		c6.77,12.88,20.24,21.63,35.65,21.63s28.88-8.75,35.65-21.63l3.26,18.67c-2.09,0.66-3.99,1.76-5.56,3.33
		c-2.6,2.6-4.03,6.08-4.03,9.77v28.33c0,9.11,3.33,17.9,9.41,24.74l13.47,15.19l-3.37,3.07c-1.46,1.32-1.61,3.59-0.33,5.09
		L195.42,234l5.56-4.76l-19.66-22.91l38.84-35.14l15.74,15.48l5.12-5.23l-18.19-17.9c-1.39-1.35-3.59-1.39-5.01-0.11L217.75,163.43z
		 M88.32,131.95v28.33c0,7.32-2.67,14.39-7.58,19.91l-13.43,15.12l-24.85-22.47l8.16-8.16c0.7-0.7,1.06-1.61,1.06-2.6v-22.55
		c0-6.33,1.32-12.52,3.92-18.37l25.22-55.97c0.44-0.99,1.24-1.68,2.27-1.98c0.99-0.29,2.01-0.11,2.93,0.48
		c0.99,0.66,1.57,1.76,1.57,2.96c0,0.07,0,0.15,0,0.22c0,0.15-0.04,0.26-0.04,0.4l0,0v0.04l-8.89,51.24
		c-5.09,1.17-9.15,5.12-10.32,10.4l-5.56,25l7.14,1.57l5.56-25c0.66-3,3.26-5.05,6.33-5.05c1.72,0,3.37,0.66,4.58,1.9
		c1.21,1.21,1.9,2.86,1.9,4.58L88.32,131.95z M124.93,114.49c-17.24,0-31.59-13.36-32.83-30.49l2.67-15.48c0,0,0-0.15,0-0.18
		c5.27-11.97,17.06-19.73,30.12-19.73s24.85,7.72,30.12,19.73c0,0.04,0,0.11,0,0.18l2.71,15.52c-1.28,17.13-15.63,30.49-32.83,30.49
		L124.93,114.49z M169.11,180.19c-4.87-5.49-7.58-12.59-7.58-19.91v-28.33c0-1.72,0.66-3.37,1.9-4.58c1.21-1.21,2.86-1.9,4.61-1.9
		c3.04,0,5.64,2.09,6.3,5.09l5.56,25l7.14-1.57l-5.56-25c-1.17-5.31-5.2-9.22-10.32-10.4l-8.89-51.28l0,0c0,0-0.04-0.33-0.07-0.48
		c0-0.04,0-0.11,0-0.15c0-1.21,0.59-2.31,1.61-2.96c0.88-0.59,1.9-0.73,2.89-0.48c1.02,0.29,1.83,0.99,2.27,1.98l25.22,55.97
		c2.6,5.86,3.92,12.04,3.92,18.37v22.55c0,0.99,0.4,1.9,1.06,2.6l8.16,8.16l-24.85,22.47l-13.43-15.12L169.11,180.19z"/>
	<path class="st0" d="M124.93,67.01c-5.38-5.05-14.02-4.98-19.33,0.15c-2.64,2.56-4.1,5.93-4.1,9.55s1.46,7.03,4.1,9.55l2.42,2.31
		c0,0,0.15,0.15,0.22,0.18l14.17,13.69c0.7,0.7,1.61,1.02,2.53,1.02s1.83-0.33,2.53-1.02l14.39-13.87l0,0l2.38-2.31
		c2.64-2.56,4.1-5.93,4.1-9.55s-1.46-7.03-4.1-9.55c-5.31-5.16-13.95-5.2-19.33-0.15H124.93z M139.17,81.03l-14.24,13.73
		L113.1,83.34c0,0-0.15-0.15-0.22-0.18l-2.2-2.12c-1.21-1.17-1.87-2.67-1.87-4.32c0-1.61,0.66-3.15,1.87-4.32
		c2.56-2.49,6.74-2.49,9.3,0l2.42,2.31c1.43,1.35,3.66,1.35,5.09,0l2.38-2.31c2.56-2.49,6.74-2.49,9.3,0
		c1.21,1.17,1.87,2.67,1.87,4.32C141.03,78.36,140.37,79.86,139.17,81.03z"/>
	<path class="st0" d="M121.27,15.66v10.98c0,2.01,1.65,3.66,3.66,3.66c2.01,0,3.66-1.65,3.66-3.66V15.66c0-2.01-1.65-3.66-3.66-3.66
		C122.91,12,121.27,13.65,121.27,15.66z"/>
	<path class="st0" d="M92.17,21.55c-1.79,0.92-2.53,3.11-1.65,4.9l5.49,10.98c0.66,1.28,1.94,2.01,3.29,2.01
		c0.55,0,1.1-0.11,1.65-0.4c1.79-0.92,2.53-3.11,1.65-4.9l-5.49-10.98c-0.92-1.79-3.11-2.53-4.9-1.65L92.17,21.55z"/>
	<path class="st0" d="M152.78,23.16l-5.49,10.98c-0.92,1.79-0.18,3.99,1.65,4.9c0.51,0.26,1.1,0.4,1.65,0.4
		c1.35,0,2.64-0.73,3.29-2.01l5.49-10.98c0.92-1.79,0.18-3.99-1.65-4.9c-1.79-0.92-3.99-0.18-4.9,1.65L152.78,23.16z"/>
</g>
</svg>
