<?xml version="1.0" encoding="utf-8"?>
<!-- Generator: Adobe Illustrator 28.0.0, SVG Export Plug-In . SVG Version: 6.00 Build 0)  -->
<svg version="1.1" id="Capa_1" xmlns="http://www.w3.org/2000/svg" xmlns:xlink="http://www.w3.org/1999/xlink" x="0px" y="0px"
	 viewBox="0 0 250 250" style="enable-background:new 0 0 250 250;" xml:space="preserve">
<style type="text/css">
	.st0{fill:#DD927A;}
</style>
<path class="st0" d="M43.8,205c-5.6,0-10.4-2-14.39-5.99c-3.99-3.99-5.99-8.79-5.99-14.39V62.38c0-5.6,2-10.4,5.99-14.39
	S38.19,42,43.8,42h163c5.6,0,10.4,2,14.39,5.99c3.99,3.99,5.99,8.79,5.99,14.39v122.25c0,5.6-2,10.4-5.99,14.39
	C217.2,203,212.4,205,206.8,205H43.8z M125.3,133.69L43.8,82.75v101.88h163V82.75L125.3,133.69z M125.3,113.31l81.5-50.94h-163
	L125.3,113.31z M43.8,82.75V62.38v122.25V82.75z"/>
</svg>
