<?xml version="1.0" encoding="utf-8"?>
<!-- Generator: Adobe Illustrator 28.0.0, SVG Export Plug-In . SVG Version: 6.00 Build 0)  -->
<svg version="1.1" id="Capa_1" xmlns="http://www.w3.org/2000/svg" xmlns:xlink="http://www.w3.org/1999/xlink" x="0px" y="0px"
	 viewBox="0 0 250 250" style="enable-background:new 0 0 250 250;" xml:space="preserve">
<style type="text/css">
	.st0{fill:#ED603A;}
	.st1{fill:#D45F35;}
	.st2{fill:#EA714B;}
	.st3{fill:#DD7454;}
</style>
<g id="XMLID_00000136377377272149019860000010654479985549534349_">
	<g>
		<path class="st0" d="M206.42,96.32c0,1.91-0.07,3.81-0.2,5.69h0c0,0,1.37,28.15-25.7,58.83c-27.06,30.67-31.4,40.42-31.4,40.43
			c-0.87,1.96-2.32,3.8-3.36,5.68c-2.66,4.8-5.04,9.76-7.1,14.84c-0.87,2.14-1.68,4.3-2.42,6.48c-0.72,2.12-1.64,4.5-2.54,6.57
			c-1.33,3.05-3.07,5.14-6.59,5.17h-0.19c-3.52-0.02-5.25-2.12-6.59-5.17c-0.9-2.06-1.82-4.44-2.54-6.57
			c-0.74-2.18-1.55-4.34-2.42-6.48c-2.06-5.08-4.44-10.04-7.1-14.84c-1.04-1.88-2.5-3.72-3.36-5.68c0,0-2.15-4.84-12.88-18.42
			l57.97-67.63l47.53-55.45C203.2,70.7,206.42,83.13,206.42,96.32z"/>
		<path class="st1" d="M151.21,20.73l-47.6,55.53L66.84,44.74C81.39,27.76,102.99,17,127.1,17C135.51,17,143.61,18.31,151.21,20.73z
			"/>
		<path class="st1" d="M149.98,115.21l-57.97,67.63c-4.5-5.7-10.52-12.94-18.52-22c-8.74-9.9-14.51-19.55-18.33-28.06l48.45-56.52
			l0.06,0.05c-4.25,5.21-6.8,11.86-6.8,19.1c0,16.7,13.53,30.23,30.23,30.23c9.13,0,17.32-4.05,22.86-10.45L149.98,115.21z"/>
		<path class="st2" d="M197.51,59.76l-47.53,55.45l-0.02-0.02c4.59-5.3,7.37-12.22,7.37-19.78c0-16.7-13.53-30.23-30.23-30.23
			c-9.45,0-17.89,4.34-23.43,11.13l-0.06-0.05l47.6-55.53C171.3,27.13,187.92,41.33,197.51,59.76z"/>
		<path class="st3" d="M66.84,44.74l36.77,31.52l-48.45,56.52c-8-17.86-7.37-30.77-7.37-30.77s-0.01-3.78-0.01-5.69
			C47.78,76.63,54.96,58.61,66.84,44.74z"/>
	</g>
</g>
</svg>
