<?xml version="1.0" encoding="utf-8"?>
<!-- Generator: Adobe Illustrator 28.0.0, SVG Export Plug-In . SVG Version: 6.00 Build 0)  -->
<svg version="1.1" id="Capa_1" xmlns="http://www.w3.org/2000/svg" xmlns:xlink="http://www.w3.org/1999/xlink" x="0px" y="0px"
	 viewBox="0 0 250 250" style="enable-background:new 0 0 250 250;" xml:space="preserve">
<style type="text/css">
	.st0{fill:#DD927A;}
</style>
<path class="st0" d="M206,131c0-22.53-7.85-41.65-23.54-57.34s-34.81-23.54-57.34-23.54V27c14.44,0,27.97,2.74,40.59,8.23
	s23.59,12.9,32.93,22.24c9.34,9.34,16.76,20.32,22.24,32.93s8.23,26.14,8.23,40.59H206z M159.78,131c0-9.63-3.37-17.81-10.11-24.56
	c-6.74-6.74-14.93-10.11-24.56-10.11V73.22c15.99,0,29.61,5.63,40.88,16.9s16.9,24.89,16.9,40.88H159.78z M216.98,235
	c-24.07,0-47.86-5.25-71.36-15.74s-44.87-25.37-64.13-44.63s-34.14-40.64-44.63-64.13S21.11,63.21,21.11,39.13
	c0-3.47,1.16-6.36,3.47-8.67S29.78,27,33.25,27h46.8c2.7,0,5.1,0.91,7.22,2.74c2.12,1.83,3.37,4,3.76,6.5l7.51,40.44
	c0.39,3.08,0.29,5.68-0.29,7.8c-0.58,2.12-1.64,3.95-3.18,5.49l-28.02,28.31c3.85,7.13,8.43,14.01,13.72,20.66
	c5.3,6.64,11.12,13.05,17.48,19.21c5.97,5.97,12.23,11.51,18.78,16.61c6.55,5.1,13.48,9.77,20.8,14.01l27.16-27.16
	c1.73-1.73,4-3.03,6.79-3.9c2.79-0.87,5.54-1.11,8.23-0.72l39.87,8.09c2.7,0.77,4.91,2.17,6.64,4.19c1.73,2.02,2.6,4.29,2.6,6.79
	v46.8c0,3.47-1.16,6.36-3.47,8.67S220.45,235,216.98,235z M56.07,96.33l19.07-19.07l-4.91-27.16H44.51c0.96,7.9,2.31,15.7,4.04,23.4
	S52.8,88.82,56.07,96.33z M159.49,199.76c7.51,3.27,15.17,5.87,22.97,7.8c7.8,1.93,15.65,3.18,23.54,3.76v-25.42l-27.16-5.49
	L159.49,199.76z"/>
</svg>
