<?xml version="1.0" encoding="utf-8"?>
<!-- Generator: Adobe Illustrator 28.0.0, SVG Export Plug-In . SVG Version: 6.00 Build 0)  -->
<svg version="1.1" id="Capa_1" xmlns="http://www.w3.org/2000/svg" xmlns:xlink="http://www.w3.org/1999/xlink" x="0px" y="0px"
	 viewBox="0 0 250 250" style="enable-background:new 0 0 250 250;" xml:space="preserve">
<style type="text/css">
	.st0{fill:#DD927A;}
</style>
<path class="st0" d="M127.28,125.5c6.13,0,11.38-2.18,15.75-6.55c4.37-4.37,6.55-9.62,6.55-15.75s-2.18-11.38-6.55-15.75
	c-4.37-4.37-9.62-6.55-15.75-6.55c-6.13,0-11.38,2.18-15.75,6.55s-6.55,9.62-6.55,15.75s2.18,11.38,6.55,15.75
	C115.9,123.32,121.15,125.5,127.28,125.5z M127.28,207.45c22.67-20.81,39.49-39.72,50.45-56.73s16.45-32.1,16.45-45.3
	c0-20.26-6.46-36.84-19.37-49.76c-12.92-12.92-28.76-19.37-47.53-19.37s-34.61,6.46-47.53,19.37s-19.37,29.5-19.37,49.76
	c0,13.19,5.48,28.29,16.45,45.3S104.61,186.64,127.28,207.45z M127.28,237c-29.92-25.46-52.27-49.11-67.04-70.94
	s-22.16-42.04-22.16-60.63c0-27.88,8.97-50.08,26.9-66.62S103.68,14,127.28,14s44.37,8.27,62.3,24.81s26.9,38.75,26.9,66.62
	c0,18.58-7.39,38.79-22.16,60.63C179.55,187.89,157.2,211.54,127.28,237z"/>
</svg>
