<?xml version="1.0" encoding="utf-8"?>
<!-- Generator: Adobe Illustrator 28.0.0, SVG Export Plug-In . SVG Version: 6.00 Build 0)  -->
<svg version="1.1" id="Capa_1" xmlns="http://www.w3.org/2000/svg" xmlns:xlink="http://www.w3.org/1999/xlink" x="0px" y="0px"
	 viewBox="0 0 250 250" style="enable-background:new 0 0 250 250;" xml:space="preserve">
<style type="text/css">
	.st0{fill-rule:evenodd;clip-rule:evenodd;fill:#DD927A;}
</style>
<g id="XMLID_00000096035866253729194790000003074268127436803261_">
	<path id="XMLID_00000113336496084323904520000008791593853944380313_" class="st0" d="M234.95,118.17
		C233.52,61.5,186.83,16,129.36,16C72.59,16,26.3,60.46,23.83,116.25c-0.05,1.53-0.1,3.07-0.1,4.6c0,19.83,5.54,38.33,15.13,54.16
		l-19.04,56.23l58.51-18.6c15.13,8.31,32.54,13.06,51.04,13.06c58.36,0,105.64-46.93,105.64-104.85
		C235,119.95,235,119.07,234.95,118.17z M129.36,208.98c-18.05,0-34.82-5.34-48.86-14.59l-34.12,10.88l11.08-32.74
		c-10.63-14.54-16.91-32.39-16.91-51.68c0-2.87,0.15-5.74,0.44-8.55c4.35-44.61,42.33-79.58,88.38-79.58
		c46.64,0,84.97,35.85,88.52,81.25c0.2,2.28,0.3,4.55,0.3,6.88C218.19,169.46,178.32,208.98,129.36,208.98z"/>
	<path id="XMLID_00000026883667017367640970000004896578107327392171_" class="st0" d="M177.78,142.01
		c-2.62-1.28-15.33-7.52-17.71-8.36c-2.38-0.89-4.11-1.29-5.84,1.29c-1.73,2.57-6.73,8.36-8.21,10.04
		c-1.53,1.73-3.01,1.93-5.64,0.64c-2.57-1.29-10.93-3.96-20.82-12.76c-7.66-6.78-12.91-15.18-14.39-17.75
		c-1.48-2.57-0.15-3.96,1.14-5.24c1.19-1.19,2.57-3.02,3.91-4.5c0.35-0.45,0.64-0.84,0.94-1.24c0.59-0.94,1.04-1.83,1.63-3.07
		c0.89-1.73,0.45-3.21-0.2-4.5c-0.64-1.29-5.84-13.95-8.01-19.09c-2.13-5.14-4.3-4.25-5.84-4.25c-1.48,0-3.21-0.25-4.95-0.25
		c-1.73,0-4.55,0.64-6.92,3.21c-2.37,2.57-9.05,8.8-9.05,21.46c0,2.97,0.55,5.94,1.33,8.76c2.62,9.05,8.26,16.52,9.25,17.81
		c1.28,1.68,17.9,28.48,44.21,38.82c26.36,10.24,26.36,6.82,31.11,6.38c4.75-0.4,15.33-6.18,17.46-12.22
		c2.18-5.98,2.18-11.13,1.53-12.22C182.08,143.94,180.35,143.3,177.78,142.01z"/>
</g>
</svg>
